<svg width="136" height="130" viewBox="0 0 136 130" fill="none" xmlns="http://www.w3.org/2000/svg">
<g filter="url(#filter0_diiiiif_588_8251)">
<path d="M40.4481 86.0194C58.9209 86.0194 73.896 71.0442 73.896 52.5712C73.896 34.0983 58.9209 19.123 40.4481 19.123C21.9754 19.123 7.00024 34.0983 7.00024 52.5712C7.00024 71.0442 21.9754 86.0194 40.4481 86.0194Z" fill="white" fill-opacity="0.01"/>
</g>
<g filter="url(#filter1_dd_588_8251)">
<path d="M127.59 40.8717L94.8804 30.8104C90.7881 29.5517 86.4503 31.8487 85.1916 35.941L75.1304 68.6514C73.8716 72.7437 76.1687 77.0815 80.2609 78.3402L112.971 88.4015C117.063 89.6602 121.401 87.3632 122.66 83.271L132.721 50.5605C133.98 46.4682 131.683 42.1304 127.59 40.8717Z" fill="url(#paint0_linear_588_8251)"/>
</g>
<g filter="url(#filter2_dd_588_8251)">
<path d="M99.1449 49.1621H53.1542C48.536 49.1621 44.7922 52.9059 44.7922 57.5241V103.515C44.7922 108.134 48.536 111.878 53.1542 111.878H99.1449C103.763 111.878 107.507 108.134 107.507 103.515V57.5241C107.507 52.9059 103.763 49.1621 99.1449 49.1621Z" fill="url(#paint1_linear_588_8251)"/>
</g>
<path d="M82.3116 88.4086C81.8546 90.7699 81.2114 92.8688 80.4397 94.6052C79.6451 96.393 78.7617 97.6898 77.9032 98.5068C77.0571 99.312 76.351 99.5529 75.8014 99.5529C75.2517 99.5529 74.5456 99.312 73.6995 98.5068C72.841 97.6898 71.9576 96.393 71.163 94.6052C70.3913 92.8688 69.7481 90.7699 69.2911 88.4086H82.3116ZM84.7768 88.4086C83.9767 92.8151 82.5547 96.501 80.7561 98.9134C86.3398 97.4413 90.9368 93.5402 93.3498 88.4086H84.7768ZM94.2948 85.986H85.1438C85.3708 84.135 85.4918 82.1853 85.4918 80.1718C85.4918 78.3332 85.3908 76.5477 85.1998 74.8421H94.4398C94.9228 76.5354 95.1818 78.3234 95.1818 80.1718C95.1818 82.1975 94.8708 84.1506 94.2948 85.986ZM82.7016 85.986H68.9011C68.6634 84.1558 68.5336 82.205 68.5336 80.1718C68.5336 78.317 68.6417 76.5307 68.8411 74.8421H82.7616C82.9611 76.5307 83.0691 78.317 83.0691 80.1718C83.0691 82.205 82.9393 84.1558 82.7016 85.986ZM66.4594 85.986C66.2323 84.135 66.111 82.1853 66.111 80.1718C66.111 78.3332 66.2122 76.5477 66.4026 74.8421H57.1627C56.6795 76.5354 56.4207 78.3234 56.4207 80.1718C56.4207 82.1975 56.7315 84.1506 57.3079 85.986H66.4594ZM58.253 88.4086C60.6658 93.5402 65.2632 97.4413 70.8466 98.9134C69.048 96.501 67.626 92.8151 66.8264 88.4086H58.253ZM80.4397 65.7384C81.2638 67.5927 81.9413 69.8604 82.4021 72.4195H69.2006C69.6614 69.8604 70.3389 67.5927 71.163 65.7384C71.9576 63.9506 72.841 62.6538 73.6995 61.8367C74.5456 61.0316 75.2517 60.791 75.8014 60.791C76.351 60.791 77.0571 61.0316 77.9032 61.8367C78.7617 62.6538 79.6451 63.9506 80.4397 65.7384ZM84.8608 72.4195H93.5698C91.2228 67.0496 86.5138 62.9483 80.7561 61.4301C82.6203 63.9305 84.0798 67.7988 84.8608 72.4195ZM58.0333 72.4195H66.7414C67.5229 67.7988 68.9825 63.9305 70.8466 61.4301C65.0887 62.9483 60.3795 67.0496 58.0333 72.4195Z" fill="url(#paint2_linear_588_8251)"/>
<g filter="url(#filter3_dd_588_8251)">
<path d="M40.5023 73.529C52.0478 73.529 61.4072 64.1694 61.4072 52.6238C61.4072 41.0783 52.0478 31.7188 40.5023 31.7188C28.9569 31.7188 19.5974 41.0783 19.5974 52.6238C19.5974 64.1694 28.9569 73.529 40.5023 73.529Z" fill="url(#paint3_linear_588_8251)"/>
<path d="M40.9161 43.3457C46.2681 43.3457 50.6064 47.6851 50.6064 53.0361C50.6064 58.3871 46.2681 62.7265 40.9161 62.7265C35.5641 62.7265 31.2258 58.3871 31.2258 53.0361C31.2258 47.6851 35.5641 43.3457 40.9161 43.3457ZM40.9178 55.9468C40.3834 55.9468 39.9501 56.3801 39.9501 56.9146C39.9501 57.449 40.3834 57.8823 40.9178 57.8823C41.4523 57.8823 41.8856 57.449 41.8856 56.9146C41.8856 56.3801 41.4523 55.9468 40.9178 55.9468ZM40.9158 48.1909C40.4188 48.1911 40.0094 48.5653 39.9535 49.0473L39.9471 49.1603L39.9488 54.0063L39.9554 54.1193C40.0115 54.6013 40.4212 54.9752 40.9182 54.975C41.4152 54.9748 41.8246 54.6006 41.8804 54.1186L41.8869 54.0056L41.8851 49.1596L41.8786 49.0466C41.8224 48.5647 41.4127 48.1907 40.9158 48.1909Z" fill="white"/>
</g>
<defs>
<filter id="filter0_diiiiif_588_8251" x="0.728744" y="0.308547" width="91.9818" height="91.9825" filterUnits="userSpaceOnUse" color-interpolation-filters="sRGB">
<feFlood flood-opacity="0" result="BackgroundImageFix"/>
<feColorMatrix in="SourceAlpha" type="matrix" values="0 0 0 0 0 0 0 0 0 0 0 0 0 0 0 0 0 0 127 0" result="hardAlpha"/>
<feOffset dx="6.2715" dy="-6.2715"/>
<feGaussianBlur stdDeviation="6.2715"/>
<feComposite in2="hardAlpha" operator="out"/>
<feColorMatrix type="matrix" values="0 0 0 0 1 0 0 0 0 1 0 0 0 0 1 0 0 0 0.85 0"/>
<feBlend mode="normal" in2="BackgroundImageFix" result="effect1_dropShadow_588_8251"/>
<feBlend mode="normal" in="SourceGraphic" in2="effect1_dropShadow_588_8251" result="shape"/>
<feColorMatrix in="SourceAlpha" type="matrix" values="0 0 0 0 0 0 0 0 0 0 0 0 0 0 0 0 0 0 127 0" result="hardAlpha"/>
<feOffset dx="-2.0905" dy="6.2715"/>
<feGaussianBlur stdDeviation="10.4525"/>
<feComposite in2="hardAlpha" operator="arithmetic" k2="-1" k3="1"/>
<feColorMatrix type="matrix" values="0 0 0 0 0 0 0 0 0 0 0 0 0 0 0 0 0 0 0.12 0"/>
<feBlend mode="normal" in2="shape" result="effect2_innerShadow_588_8251"/>
<feColorMatrix in="SourceAlpha" type="matrix" values="0 0 0 0 0 0 0 0 0 0 0 0 0 0 0 0 0 0 127 0" result="hardAlpha"/>
<feOffset dx="-2.0905" dy="4.181"/>
<feGaussianBlur stdDeviation="3.13575"/>
<feComposite in2="hardAlpha" operator="arithmetic" k2="-1" k3="1"/>
<feColorMatrix type="matrix" values="0 0 0 0 0 0 0 0 0 0 0 0 0 0 0 0 0 0 0.06 0"/>
<feBlend mode="normal" in2="effect2_innerShadow_588_8251" result="effect3_innerShadow_588_8251"/>
<feColorMatrix in="SourceAlpha" type="matrix" values="0 0 0 0 0 0 0 0 0 0 0 0 0 0 0 0 0 0 127 0" result="hardAlpha"/>
<feOffset dx="-2.0905" dy="6.2715"/>
<feGaussianBlur stdDeviation="12.543"/>
<feComposite in2="hardAlpha" operator="arithmetic" k2="-1" k3="1"/>
<feColorMatrix type="matrix" values="0 0 0 0 0 0 0 0 0 0 0 0 0 0 0 0 0 0 0.12 0"/>
<feBlend mode="normal" in2="effect3_innerShadow_588_8251" result="effect4_innerShadow_588_8251"/>
<feColorMatrix in="SourceAlpha" type="matrix" values="0 0 0 0 0 0 0 0 0 0 0 0 0 0 0 0 0 0 127 0" result="hardAlpha"/>
<feOffset dx="-2.0905" dy="4.181"/>
<feGaussianBlur stdDeviation="4.181"/>
<feComposite in2="hardAlpha" operator="arithmetic" k2="-1" k3="1"/>
<feColorMatrix type="matrix" values="0 0 0 0 0 0 0 0 0 0 0 0 0 0 0 0 0 0 0.06 0"/>
<feBlend mode="normal" in2="effect4_innerShadow_588_8251" result="effect5_innerShadow_588_8251"/>
<feColorMatrix in="SourceAlpha" type="matrix" values="0 0 0 0 0 0 0 0 0 0 0 0 0 0 0 0 0 0 127 0" result="hardAlpha"/>
<feOffset dx="5.22625" dy="-5.22625"/>
<feGaussianBlur stdDeviation="6.2715"/>
<feComposite in2="hardAlpha" operator="arithmetic" k2="-1" k3="1"/>
<feColorMatrix type="matrix" values="0 0 0 0 1 0 0 0 0 1 0 0 0 0 1 0 0 0 0.9 0"/>
<feBlend mode="normal" in2="effect5_innerShadow_588_8251" result="effect6_innerShadow_588_8251"/>
<feGaussianBlur stdDeviation="0.195985" result="effect7_foregroundBlur_588_8251"/>
</filter>
<filter id="filter1_dd_588_8251" x="66.0643" y="29.4968" width="69.9082" height="69.9087" filterUnits="userSpaceOnUse" color-interpolation-filters="sRGB">
<feFlood flood-opacity="0" result="BackgroundImageFix"/>
<feColorMatrix in="SourceAlpha" type="matrix" values="0 0 0 0 0 0 0 0 0 0 0 0 0 0 0 0 0 0 127 0" result="hardAlpha"/>
<feOffset dx="-2.90711" dy="4.84518"/>
<feGaussianBlur stdDeviation="2.90711"/>
<feColorMatrix type="matrix" values="0 0 0 0 0 0 0 0 0 0 0 0 0 0 0 0 0 0 0.12 0"/>
<feBlend mode="normal" in2="BackgroundImageFix" result="effect1_dropShadow_588_8251"/>
<feColorMatrix in="SourceAlpha" type="matrix" values="0 0 0 0 0 0 0 0 0 0 0 0 0 0 0 0 0 0 127 0" result="hardAlpha"/>
<feOffset dx="-0.969036" dy="1.93807"/>
<feGaussianBlur stdDeviation="1.45355"/>
<feComposite in2="hardAlpha" operator="out"/>
<feColorMatrix type="matrix" values="0 0 0 0 0 0 0 0 0 0 0 0 0 0 0 0 0 0 0.08 0"/>
<feBlend mode="normal" in2="effect1_dropShadow_588_8251" result="effect2_dropShadow_588_8251"/>
<feBlend mode="normal" in="SourceGraphic" in2="effect2_dropShadow_588_8251" result="shape"/>
</filter>
<filter id="filter2_dd_588_8251" x="35.385" y="48.1168" width="75.2576" height="75.2583" filterUnits="userSpaceOnUse" color-interpolation-filters="sRGB">
<feFlood flood-opacity="0" result="BackgroundImageFix"/>
<feColorMatrix in="SourceAlpha" type="matrix" values="0 0 0 0 0 0 0 0 0 0 0 0 0 0 0 0 0 0 127 0" result="hardAlpha"/>
<feOffset dx="-3.13575" dy="5.22625"/>
<feGaussianBlur stdDeviation="3.13575"/>
<feColorMatrix type="matrix" values="0 0 0 0 0 0 0 0 0 0 0 0 0 0 0 0 0 0 0.12 0"/>
<feBlend mode="normal" in2="BackgroundImageFix" result="effect1_dropShadow_588_8251"/>
<feColorMatrix in="SourceAlpha" type="matrix" values="0 0 0 0 0 0 0 0 0 0 0 0 0 0 0 0 0 0 127 0" result="hardAlpha"/>
<feOffset dx="-1.04525" dy="2.0905"/>
<feGaussianBlur stdDeviation="1.56788"/>
<feComposite in2="hardAlpha" operator="out"/>
<feColorMatrix type="matrix" values="0 0 0 0 0 0 0 0 0 0 0 0 0 0 0 0 0 0 0.08 0"/>
<feBlend mode="normal" in2="effect1_dropShadow_588_8251" result="effect2_dropShadow_588_8251"/>
<feBlend mode="normal" in="SourceGraphic" in2="effect2_dropShadow_588_8251" result="shape"/>
</filter>
<filter id="filter3_dd_588_8251" x="10.1902" y="30.6735" width="54.3528" height="54.3533" filterUnits="userSpaceOnUse" color-interpolation-filters="sRGB">
<feFlood flood-opacity="0" result="BackgroundImageFix"/>
<feColorMatrix in="SourceAlpha" type="matrix" values="0 0 0 0 0 0 0 0 0 0 0 0 0 0 0 0 0 0 127 0" result="hardAlpha"/>
<feOffset dx="-3.13575" dy="5.22625"/>
<feGaussianBlur stdDeviation="3.13575"/>
<feColorMatrix type="matrix" values="0 0 0 0 0 0 0 0 0 0 0 0 0 0 0 0 0 0 0.12 0"/>
<feBlend mode="normal" in2="BackgroundImageFix" result="effect1_dropShadow_588_8251"/>
<feColorMatrix in="SourceAlpha" type="matrix" values="0 0 0 0 0 0 0 0 0 0 0 0 0 0 0 0 0 0 127 0" result="hardAlpha"/>
<feOffset dx="-1.04525" dy="2.0905"/>
<feGaussianBlur stdDeviation="1.56788"/>
<feComposite in2="hardAlpha" operator="out"/>
<feColorMatrix type="matrix" values="0 0 0 0 0 0 0 0 0 0 0 0 0 0 0 0 0 0 0.08 0"/>
<feBlend mode="normal" in2="effect1_dropShadow_588_8251" result="effect2_dropShadow_588_8251"/>
<feBlend mode="normal" in="SourceGraphic" in2="effect2_dropShadow_588_8251" result="shape"/>
</filter>
<linearGradient id="paint0_linear_588_8251" x1="135" y1="43.1508" x2="72.851" y2="76.0605" gradientUnits="userSpaceOnUse">
<stop offset="0.126947" stop-color="#F6465A"/>
<stop offset="1" stop-color="#A42331"/>
</linearGradient>
<linearGradient id="paint1_linear_588_8251" x1="107.507" y1="49.1621" x2="44.7916" y2="111.877" gradientUnits="userSpaceOnUse">
<stop offset="0.108965" stop-color="#F7F6F4"/>
<stop offset="1" stop-color="#E8E6DF"/>
</linearGradient>
<linearGradient id="paint2_linear_588_8251" x1="95.1818" y1="60.791" x2="56.4203" y2="99.5519" gradientUnits="userSpaceOnUse">
<stop offset="0.175465" stop-color="#FFC424"/>
<stop offset="1" stop-color="#E7512C"/>
</linearGradient>
<linearGradient id="paint3_linear_588_8251" x1="61.4072" y1="31.7187" x2="19.5969" y2="73.5286" gradientUnits="userSpaceOnUse">
<stop offset="0.126947" stop-color="#F6465A"/>
<stop offset="1" stop-color="#A42331"/>
</linearGradient>
</defs>
</svg>
