<svg width="16" height="16" viewBox="0 0 16 16" fill="none" xmlns="http://www.w3.org/2000/svg">
<path fill-rule="evenodd" clip-rule="evenodd" d="M9.46246 1.66872C8.98484 1.56221 8.49743 1.50567 8.00812 1.50003C7.50663 1.5058 7.01872 1.56231 6.54054 1.66866C6.33191 1.71506 6.17584 1.88893 6.15216 2.10134L6.03878 3.11846C6.00619 3.40951 5.83739 3.66809 5.58385 3.81516C5.3292 3.96393 5.02037 3.98173 4.75175 3.86385L3.81816 3.45374C3.62396 3.36843 3.39706 3.41494 3.25208 3.56977C2.5773 4.29046 2.07475 5.1548 1.78224 6.09775C1.71913 6.30122 1.79186 6.52233 1.96344 6.64859L2.79181 7.2582C3.02821 7.43189 3.16765 7.70737 3.16765 8.00033C3.16765 8.2933 3.02821 8.56878 2.79212 8.74224L1.96323 9.3529C1.79191 9.47911 1.71924 9.69994 1.78213 9.90323C2.07413 10.8471 2.57642 11.7123 3.25119 12.434C3.39602 12.5889 3.62281 12.6356 3.81705 12.5505L4.7548 12.1396C5.02214 12.0229 5.32967 12.04 5.58295 12.186C5.83623 12.332 6.00518 12.5896 6.03824 12.88L6.15079 13.8963C6.17403 14.1062 6.3266 14.2788 6.53202 14.3277C7.49765 14.5574 8.50372 14.5574 9.46935 14.3277C9.67477 14.2788 9.82734 14.1062 9.85058 13.8963L9.9633 12.8785C9.99551 12.5875 10.1642 12.3292 10.4177 12.1827C10.6712 12.0362 10.9792 12.019 11.2474 12.1364L12.185 12.5471C12.3792 12.6322 12.6059 12.5856 12.7507 12.4308C13.4251 11.71 13.9274 10.8457 14.2198 9.90289C14.2829 9.69952 14.2102 9.47852 14.0388 9.35223L13.2104 8.74196C12.9738 8.56811 12.8344 8.29263 12.8344 7.99967C12.8344 7.7067 12.9738 7.43122 13.2099 7.25776L14.0376 6.6477C14.2089 6.52139 14.2815 6.30042 14.2185 6.09709C13.926 5.15413 13.4234 4.28979 12.7486 3.56911C12.6036 3.41427 12.3767 3.36776 12.1825 3.45307L11.2488 3.86325C11.1319 3.91495 11.0069 3.94128 10.8804 3.94108C10.41 3.94059 10.0154 3.5866 9.96401 3.11924L9.85054 2.10134C9.82688 1.88904 9.67095 1.71522 9.46246 1.66872ZM7.10522 2.57804C7.40371 2.52965 7.70555 2.50353 8.00824 2.49996C8.30176 2.50344 8.60044 2.5295 8.89747 2.57783L8.97008 3.22925C9.07702 4.2024 9.89932 4.94006 10.8791 4.94108C11.1452 4.9415 11.4086 4.88603 11.6522 4.77827L12.2498 4.51574C12.6312 4.97859 12.9347 5.50044 13.1485 6.06076L12.6172 6.45235C12.1253 6.81377 11.8344 7.38848 11.8344 7.99967C11.8344 8.61086 12.1253 9.18556 12.6178 9.54744L13.1498 9.93935C12.9361 10.4997 12.6327 11.0215 12.2515 11.4845L11.6485 11.2203C11.0888 10.9754 10.4461 11.0113 9.91732 11.3169C9.3885 11.6225 9.03657 12.1614 8.96937 12.7685L8.89674 13.4244C8.30364 13.5252 7.69773 13.5252 7.10464 13.4244L7.03199 12.7684C6.96288 12.1612 6.61054 11.6241 6.08235 11.3196C5.55416 11.0152 4.91282 10.9795 4.35409 11.2234L3.75067 11.4878C3.36912 11.0241 3.06559 10.5014 2.85203 9.94018L3.38473 9.54773C3.87675 9.18623 4.16765 8.61153 4.16765 8.00033C4.16765 7.38914 3.87675 6.81444 3.38421 6.45256L2.85235 6.06115C3.06609 5.50093 3.36957 4.97918 3.75086 4.5164L4.34972 4.77948C4.91158 5.02605 5.55731 4.98881 6.08695 4.67938C6.61336 4.37404 6.96471 3.83582 7.0326 3.22949L7.10522 2.57804ZM10.4998 8C10.4998 6.61929 9.38051 5.5 7.9998 5.5C6.61908 5.5 5.4998 6.61929 5.4998 8C5.4998 9.38071 6.61908 10.5 7.9998 10.5C9.38051 10.5 10.4998 9.38071 10.4998 8ZM6.4998 8C6.4998 7.17157 7.17137 6.5 7.9998 6.5C8.82822 6.5 9.4998 7.17157 9.4998 8C9.4998 8.82842 8.82822 9.5 7.9998 9.5C7.17137 9.5 6.4998 8.82842 6.4998 8Z" fill="#0E63F1"/>
</svg>
