<svg width="36" height="36" viewBox="0 0 36 36" fill="none" xmlns="http://www.w3.org/2000/svg">
<rect x="0.5" y="0.5" width="35" height="35" rx="3.5" fill="url(#paint0_linear_287_25740)"/>
<rect x="0.5" y="0.5" width="35" height="35" rx="3.5" stroke="#EBEBEB"/>
<mask id="mask0_287_25740" style="mask-type:alpha" maskUnits="userSpaceOnUse" x="8" y="8" width="20" height="20">
<rect x="8" y="8" width="20" height="20" fill="#D9D9D9"/>
</mask>
<g mask="url(#mask0_287_25740)">
<path d="M18.0002 19.6667L8.8335 14.6667L18.0002 9.66666L27.1668 14.6667L18.0002 19.6667ZM18.0002 23L9.31266 18.2708L11.0627 17.3125L18.0002 21.1042L24.9377 17.3125L26.6877 18.2708L18.0002 23ZM18.0002 26.3333L9.31266 21.6042L11.0627 20.6458L18.0002 24.4375L24.9377 20.6458L26.6877 21.6042L18.0002 26.3333Z" fill="white"/>
</g>
<defs>
<linearGradient id="paint0_linear_287_25740" x1="0" y1="0" x2="36" y2="36" gradientUnits="userSpaceOnUse">
<stop stop-color="#4285F4"/>
<stop offset="1" stop-color="#0E63F1"/>
</linearGradient>
</defs>
</svg>
